# xmcd CD database file
#
# Track frame offsets:
#	150
#	13132
#	28202
#	42547
#	57832
#	77507
#	100047
#	115557
#	135865
#	148290
#	162005
#	185247
#	203092
#	216907
#	233305
#
# Disc length: 3289 seconds
#
# Revision: 0
# Processed by: cddbd v1.5.1PL0 Copyright (c) Steve Scherf et al.
# Submitted via: CDex 1.51
#
DISCID=c60cd70f
DTITLE=U.S. Air Force Reserve Dixie Express - Reserved For You
DYEAR=1900
DGENRE=Jazz
TTITLE0=South Rampart Street Parade
TTITLE1=The Lady's In Love With You
TTITLE2=Amorous
TTITLE3=Muskrat Groove
TTITLE4=Wabash Blues
TTITLE5=Louisiana Fairytale
TTITLE6=Doctor Jazz
TTITLE7=Liza
TTITLE8=Dinah
TTITLE9=Nobody's Sweetheart
TTITLE10=Milneburg Joys
TTITLE11='Tain't So, Honey, 'Tain't So
TTITLE12=Just a Gigolo - I Ain't Got Nobody
TTITLE13=His Eye Is On the Sparrow
TTITLE14=Farewell Blues
EXTD=
EXTT0=
EXTT1=
EXTT2=
EXTT3=
EXTT4=
EXTT5=
EXTT6=
EXTT7=
EXTT8=
EXTT9=
EXTT10=
EXTT11=
EXTT12=
EXTT13=
EXTT14=
PLAYORDER=
